<?xml version="1.0" standalone="no"?>
<!DOCTYPE svg PUBLIC "-//W3C//DTD SVG 20010904//EN"
 "http://www.w3.org/TR/2001/REC-SVG-20010904/DTD/svg10.dtd">
<svg version="1.0" xmlns="http://www.w3.org/2000/svg"
 width="1000.000000pt" height="1000.000000pt" viewBox="0 0 1000.000000 1000.000000"
 preserveAspectRatio="xMidYMid meet">

<g transform="translate(0.000000,1000.000000) scale(0.100000,-0.100000)"
fill="#000000" stroke="none">
<path d="M1904 8780 c-78 -11 -204 -53 -274 -92 -192 -108 -323 -271 -392
-488 l-23 -75 0 -3130 0 -3130 23 -75 c92 -291 304 -492 598 -567 65 -17 239
-18 3164 -18 2925 0 3099 1 3164 18 294 75 506 276 598 567 l23 75 0 3130 0
3130 -23 75 c-89 283 -282 471 -575 563 l-72 22 -3075 1 c-1691 1 -3102 -2
-3136 -6z m3512 -1109 c345 -59 613 -147 893 -292 704 -364 1204 -997 1390
-1759 182 -746 37 -1588 -384 -2230 -312 -477 -756 -841 -1280 -1050 -168 -67
-255 -65 -302 7 -17 25 -18 76 -24 613 -5 576 -6 586 -28 655 -32 95 -66 161
-112 217 -21 26 -39 49 -39 51 0 2 37 8 83 12 116 10 359 51 440 74 284 82
466 209 586 409 90 151 134 300 158 541 36 370 -23 577 -231 808 l-46 51 20
76 c43 156 41 358 -6 540 -38 151 -37 150 -112 154 -35 2 -90 -4 -125 -13
-116 -29 -373 -156 -531 -261 l-52 -34 -76 20 c-202 53 -316 64 -628 64 -313
0 -436 -13 -628 -65 l-73 -20 -62 39 c-190 122 -403 226 -524 257 -35 9 -90
15 -125 13 -74 -4 -75 -4 -115 -156 -24 -87 -27 -115 -27 -277 -1 -158 2 -189
21 -257 l23 -78 -63 -78 c-149 -184 -197 -330 -197 -595 0 -535 166 -879 506
-1050 154 -77 415 -142 662 -163 45 -3 82 -8 82 -10 0 -3 -19 -28 -43 -57 -51
-62 -91 -149 -115 -249 l-18 -73 -60 -24 c-68 -27 -186 -50 -259 -50 -192 -1
-383 115 -485 295 -52 92 -170 204 -260 247 -116 55 -224 72 -280 44 -58 -29
-20 -94 103 -174 104 -69 204 -204 277 -375 53 -123 63 -139 125 -203 67 -69
143 -110 270 -147 70 -19 103 -22 265 -23 102 0 211 3 243 8 l57 7 0 -363 c0
-362 0 -364 -23 -398 -60 -89 -143 -81 -427 45 -299 133 -573 326 -825 580
-427 431 -694 970 -787 1589 -32 210 -32 599 0 817 39 267 113 521 221 758
373 825 1120 1385 2041 1531 181 29 179 29 495 26 240 -2 311 -6 411 -24z"/>
</g>
</svg>
