<?xml version="1.0" standalone="no"?>
<!DOCTYPE svg PUBLIC "-//W3C//DTD SVG 20010904//EN"
 "http://www.w3.org/TR/2001/REC-SVG-20010904/DTD/svg10.dtd">
<svg version="1.0" xmlns="http://www.w3.org/2000/svg"
 width="1000.000000pt" height="1000.000000pt" viewBox="0 0 1000.000000 1000.000000"
 preserveAspectRatio="xMidYMid meet">

<g transform="translate(0.000000,1000.000000) scale(0.100000,-0.100000)"
fill="#000000" stroke="none">
<path d="M1904 8780 c-78 -11 -204 -53 -274 -92 -192 -108 -323 -271 -392
-488 l-23 -75 0 -3130 0 -3130 23 -75 c92 -291 304 -492 598 -567 65 -17 239
-18 3164 -18 2925 0 3099 1 3164 18 294 75 506 276 598 567 l23 75 0 3130 0
3130 -23 75 c-89 283 -282 471 -575 563 l-72 22 -3075 1 c-1691 1 -3102 -2
-3136 -6z m1626 -1740 c140 -27 277 -135 346 -276 l39 -78 0 -131 0 -131 -38
-76 c-73 -148 -217 -256 -375 -280 -209 -33 -421 81 -518 278 l-39 78 0 131 0
131 39 80 c104 209 318 317 546 274z m2774 -1306 c350 -59 587 -279 681 -635
60 -229 59 -202 62 -1216 l4 -933 -426 0 -425 0 0 683 c-1 692 -8 952 -31
1042 -19 81 -64 170 -108 218 -78 84 -228 127 -380 108 -227 -29 -340 -132
-402 -366 -19 -70 -22 -122 -29 -420 -5 -187 -9 -548 -9 -803 l-1 -462 -422 2
-423 3 0 1365 0 1365 408 3 407 2 0 -178 c0 -98 3 -182 6 -185 4 -3 28 24 54
61 138 196 378 333 635 362 91 11 287 3 399 -16z m-2444 -1414 l0 -1370 -430
0 -430 0 0 1363 c0 750 3 1367 7 1370 3 4 197 7 430 7 l423 0 0 -1370z"/>
</g>
</svg>
