<?xml version="1.0" standalone="no"?>
<!DOCTYPE svg PUBLIC "-//W3C//DTD SVG 20010904//EN"
 "http://www.w3.org/TR/2001/REC-SVG-20010904/DTD/svg10.dtd">
<svg version="1.0" xmlns="http://www.w3.org/2000/svg"
 width="1000.000000pt" height="1000.000000pt" viewBox="0 0 1000.000000 1000.000000"
 preserveAspectRatio="xMidYMid meet">

<g transform="translate(0.000000,1000.000000) scale(0.100000,-0.100000)"
fill="#000000" stroke="none">
<path d="M1904 8780 c-78 -11 -204 -53 -274 -92 -192 -108 -323 -271 -392
-488 l-23 -75 0 -3130 0 -3130 23 -75 c92 -291 304 -492 598 -567 65 -17 239
-18 3164 -18 2925 0 3099 1 3164 18 294 75 506 276 598 567 l23 75 0 3130 0
3130 -23 75 c-89 283 -282 471 -575 563 l-72 22 -3075 1 c-1691 1 -3102 -2
-3136 -6z m5567 -2008 c-5 -10 -470 -475 -1033 -1033 -960 -952 -1028 -1016
-1097 -1052 -40 -20 -85 -37 -100 -37 -15 0 -37 -7 -50 -16 -31 -22 -276 -32
-336 -15 -22 7 -66 19 -97 26 -31 8 -79 28 -106 45 -27 16 -54 30 -59 30 -6 0
-31 20 -56 45 -26 25 -51 45 -56 45 -14 0 -1961 1951 -1961 1966 0 12 364 14
2480 14 2398 0 2480 -1 2471 -18z m-4507 -1018 c405 -405 736 -741 736 -747 0
-16 -1462 -1477 -1477 -1477 -10 0 -13 297 -13 1480 0 850 4 1480 9 1480 5 0
340 -331 745 -736z m4816 -744 c0 -1262 -2 -1480 -14 -1480 -8 0 -343 329
-745 731 -517 518 -730 737 -726 748 5 17 1466 1481 1478 1481 4 0 7 -666 7
-1480z m-3660 -410 c60 -60 113 -110 119 -110 5 0 29 -19 53 -43 27 -27 83
-63 148 -96 58 -28 112 -56 120 -60 93 -50 358 -91 510 -78 52 4 102 8 110 9
24 0 122 28 157 44 17 8 40 14 51 14 18 0 211 94 253 124 44 30 179 146 260
224 48 45 92 82 97 82 12 0 1459 -1446 1473 -1471 9 -19 -57 -19 -2471 -19
-1955 0 -2480 3 -2480 12 0 17 1462 1478 1478 1478 7 0 62 -49 122 -110z"/>
</g>
</svg>
